<svg width="165" height="165" viewBox="0 0 165 165" fill="none" xmlns="http://www.w3.org/2000/svg">
<g id="ph:camera-thin">
<path id="Vector" d="M134.062 38.6719H114.81L105.265 24.3504C105.03 23.9981 104.712 23.7092 104.338 23.5091C103.965 23.309 103.548 23.2039 103.125 23.2031H61.875C61.4515 23.2039 61.0348 23.309 60.6616 23.5091C60.2884 23.7092 59.9702 23.9981 59.7352 24.3504L50.1768 38.6719H30.9375C27.5187 38.6719 24.2399 40.03 21.8225 42.4475C19.405 44.8649 18.0469 48.1437 18.0469 51.5625V123.75C18.0469 127.169 19.405 130.448 21.8225 132.865C24.2399 135.283 27.5187 136.641 30.9375 136.641H134.062C137.481 136.641 140.76 135.283 143.178 132.865C145.595 130.448 146.953 127.169 146.953 123.75V51.5625C146.953 48.1437 145.595 44.8649 143.178 42.4475C140.76 40.03 137.481 38.6719 134.062 38.6719ZM141.797 123.75C141.797 125.801 140.982 127.769 139.532 129.219C138.081 130.67 136.114 131.484 134.062 131.484H30.9375C28.8862 131.484 26.9189 130.67 25.4685 129.219C24.018 127.769 23.2031 125.801 23.2031 123.75V51.5625C23.2031 49.5112 24.018 47.5439 25.4685 46.0935C26.9189 44.643 28.8862 43.8281 30.9375 43.8281H51.5625C51.9871 43.8284 52.4051 43.7238 52.7795 43.5237C53.154 43.3235 53.4732 43.034 53.7088 42.6809L63.2478 28.3594H101.739L111.291 42.6809C111.527 43.034 111.846 43.3235 112.22 43.5237C112.595 43.7238 113.013 43.8284 113.438 43.8281H134.062C136.114 43.8281 138.081 44.643 139.532 46.0935C140.982 47.5439 141.797 49.5112 141.797 51.5625V123.75ZM82.5 59.2969C77.401 59.2969 72.4164 60.8089 68.1767 63.6418C63.937 66.4747 60.6326 70.5012 58.6812 75.2121C56.7299 79.923 56.2194 85.1067 57.2141 90.1078C58.2089 95.1089 60.6643 99.7026 64.2699 103.308C67.8755 106.914 72.4693 109.369 77.4703 110.364C82.4714 111.359 87.6552 110.848 92.3661 108.897C97.077 106.946 101.103 103.641 103.936 99.4014C106.769 95.1617 108.281 90.1772 108.281 85.0781C108.281 78.2405 105.565 71.683 100.73 66.848C95.8952 62.0131 89.3376 59.2969 82.5 59.2969ZM82.5 105.703C78.4208 105.703 74.4331 104.493 71.0414 102.227C67.6496 99.9609 65.006 96.7397 63.445 92.971C61.8839 89.2022 61.4755 85.0552 62.2713 81.0544C63.0671 77.0535 65.0315 73.3785 67.9159 70.494C70.8004 67.6096 74.4754 65.6452 78.4763 64.8494C82.4771 64.0536 86.6241 64.4621 90.3928 66.0231C94.1616 67.5842 97.3828 70.2277 99.6491 73.6195C101.915 77.0113 103.125 80.9989 103.125 85.0781C103.125 90.5482 100.952 95.7943 97.0841 99.6622C93.2161 103.53 87.9701 105.703 82.5 105.703Z" fill="white"/>
</g>
</svg>
